<mxfile host="app.diagrams.net" modified="2023-08-09T05:48:56.705Z" agent="Mozilla/5.0 (Macintosh; Intel Mac OS X 10_15_7) AppleWebKit/537.36 (KHTML, like Gecko) Chrome/115.0.0.0 Safari/537.36" etag="46eE9qnNTjL99vpHGZ3S" version="21.6.7" type="github">
  <diagram id="C5RBs43oDa-KdzZeNtuy" name="Page-1">
    <mxGraphModel dx="896" dy="524" grid="1" gridSize="10" guides="1" tooltips="1" connect="1" arrows="1" fold="1" page="1" pageScale="1" pageWidth="827" pageHeight="1169" math="0" shadow="0">
      <root>
        <mxCell id="WIyWlLk6GJQsqaUBKTNV-0" />
        <mxCell id="WIyWlLk6GJQsqaUBKTNV-1" parent="WIyWlLk6GJQsqaUBKTNV-0" />
        <mxCell id="4Ud9yjT0w8RNgqQSBJTi-1" value="Place an Order" style="swimlane;childLayout=stackLayout;resizeParent=1;resizeParentMax=0;startSize=20;horizontal=0;horizontalStack=1;" vertex="1" parent="WIyWlLk6GJQsqaUBKTNV-1">
          <mxGeometry x="110" y="40" width="544.2" height="470" as="geometry" />
        </mxCell>
        <mxCell id="4Ud9yjT0w8RNgqQSBJTi-2" value="User" style="swimlane;startSize=20;" vertex="1" parent="4Ud9yjT0w8RNgqQSBJTi-1">
          <mxGeometry x="20" width="154.2" height="470" as="geometry" />
        </mxCell>
        <mxCell id="4Ud9yjT0w8RNgqQSBJTi-6" value="" style="image;sketch=0;aspect=fixed;html=1;points=[];align=center;fontSize=12;image=img/lib/mscae/Person.svg;" vertex="1" parent="4Ud9yjT0w8RNgqQSBJTi-2">
          <mxGeometry x="30.000000000000007" y="55.29" width="59.2" height="80" as="geometry" />
        </mxCell>
        <mxCell id="4Ud9yjT0w8RNgqQSBJTi-3" value="POS Tablet" style="swimlane;startSize=20;" vertex="1" parent="4Ud9yjT0w8RNgqQSBJTi-1">
          <mxGeometry x="174.2" width="200" height="470" as="geometry" />
        </mxCell>
        <mxCell id="4Ud9yjT0w8RNgqQSBJTi-21" value="&amp;nbsp;new order" style="edgeStyle=orthogonalEdgeStyle;rounded=0;orthogonalLoop=1;jettySize=auto;html=1;" edge="1" parent="4Ud9yjT0w8RNgqQSBJTi-3" source="4Ud9yjT0w8RNgqQSBJTi-19">
          <mxGeometry relative="1" as="geometry">
            <mxPoint x="108.30000000000001" y="200" as="targetPoint" />
          </mxGeometry>
        </mxCell>
        <mxCell id="4Ud9yjT0w8RNgqQSBJTi-19" value="" style="image;sketch=0;aspect=fixed;html=1;points=[];align=center;fontSize=12;image=img/lib/mscae/Shared_Dashboard.svg;" vertex="1" parent="4Ud9yjT0w8RNgqQSBJTi-3">
          <mxGeometry x="62.9" y="59.58" width="87.1" height="71.42" as="geometry" />
        </mxCell>
        <mxCell id="4Ud9yjT0w8RNgqQSBJTi-22" value="dashboard" style="text;html=1;strokeColor=none;fillColor=none;align=center;verticalAlign=middle;whiteSpace=wrap;rounded=0;" vertex="1" parent="4Ud9yjT0w8RNgqQSBJTi-3">
          <mxGeometry x="76.45000000000002" y="29.58" width="60" height="30" as="geometry" />
        </mxCell>
        <mxCell id="4Ud9yjT0w8RNgqQSBJTi-4" value="AWS Server" style="swimlane;startSize=20;" vertex="1" parent="4Ud9yjT0w8RNgqQSBJTi-1">
          <mxGeometry x="374.2" width="170" height="470" as="geometry" />
        </mxCell>
        <mxCell id="4Ud9yjT0w8RNgqQSBJTi-15" value="" style="edgeStyle=orthogonalEdgeStyle;rounded=0;orthogonalLoop=1;jettySize=auto;html=1;" edge="1" parent="4Ud9yjT0w8RNgqQSBJTi-1" source="4Ud9yjT0w8RNgqQSBJTi-6" target="4Ud9yjT0w8RNgqQSBJTi-19">
          <mxGeometry relative="1" as="geometry">
            <mxPoint x="230" y="150" as="targetPoint" />
          </mxGeometry>
        </mxCell>
        <mxCell id="4Ud9yjT0w8RNgqQSBJTi-16" value="login" style="edgeLabel;html=1;align=center;verticalAlign=middle;resizable=0;points=[];" vertex="1" connectable="0" parent="4Ud9yjT0w8RNgqQSBJTi-15">
          <mxGeometry x="-0.3213" relative="1" as="geometry">
            <mxPoint as="offset" />
          </mxGeometry>
        </mxCell>
      </root>
    </mxGraphModel>
  </diagram>
</mxfile>
